<svg width="339" height="338" viewBox="0 0 339 338" fill="none" xmlns="http://www.w3.org/2000/svg">
<mask id="mask0_2766_2842" style="mask-type:alpha" maskUnits="userSpaceOnUse" x="0" y="0" width="339" height="338">
<rect x="0.811523" width="337.512" height="337.795" fill="white"/>
</mask>
<g mask="url(#mask0_2766_2842)">
<path d="M283.614 54.9427C237.648 37.6232 186.888 33.8248 169.559 86.4897C153.015 36.7734 107.324 35.716 55.5185 54.9102C36.4152 105.303 37.0828 152.528 87.0648 168.989C36.1067 186.152 36.9355 234.218 55.5129 283.057C91.9534 296.852 150.646 309.226 169.559 251.478C187.202 305.515 240.691 299.584 283.594 283.03C300.723 238.882 305.163 185.902 252.055 168.986C300.731 153.035 303.339 107.905 283.614 54.9427Z" fill="black" stroke="white" stroke-width="12" stroke-linecap="round" stroke-linejoin="round"/>
<path d="M169.566 7.68457C124.817 27.9404 86.2387 61.1471 111.225 110.641C64.3717 87.184 31.3156 118.745 8.25586 168.949C30.3807 218.09 64.2462 251.012 111.229 227.309C87.3313 275.477 121.906 308.879 169.576 330.277C205.098 314.264 255.35 281.513 227.889 227.305C278.575 253.039 312.203 211.023 330.834 168.98C311.729 125.651 277.407 85.0489 227.893 110.641C251.032 64.9424 220.965 31.1862 169.566 7.68457Z" fill="black" stroke="white" stroke-width="12" stroke-linecap="round"/>
<path d="M101.472 169.146C146.922 160.805 161.972 146.049 169.479 101.14C176.961 147.905 193.344 161.049 237.485 169.146C193.362 176.155 177.592 190.073 169.479 237.153C161.405 192.051 147.206 176.475 101.472 169.146Z" fill="white"/>
</g>
</svg>
